<svg width="388" height="299" viewBox="0 0 388 299" fill="none" xmlns="http://www.w3.org/2000/svg">
<g clip-path="url(#clip0_2079_75)">
<path d="M127.54 73.8872L131.303 81.5136L139.715 82.7376L133.626 88.6744L135.064 97.0576L127.54 93.0996L120.016 97.0576L121.454 88.6744L115.366 82.7376L123.777 81.5136L127.54 73.8872Z" fill="#CCC565"/>
<path d="M182.38 54.6269L186.143 62.2534L194.555 63.4774L188.467 69.4142L189.904 77.7973L182.38 73.8394L174.856 77.7973L176.294 69.4142L170.206 63.4774L178.618 62.2534L182.38 54.6269Z" fill="#CCC565"/>
<path d="M237.221 73.8872L240.984 81.5136L249.395 82.7376L243.307 88.6744L244.745 97.0576L237.221 93.0996L229.697 97.0576L231.135 88.6744L225.047 82.7376L233.458 81.5136L237.221 73.8872Z" fill="#CCC565"/>
<path d="M237.221 229.362L233.458 221.736L225.047 220.512L231.135 214.575L229.697 206.192L237.221 210.15L244.745 206.192L243.307 214.575L249.395 220.512L240.984 221.736L237.221 229.362Z" fill="#CCC565"/>
<path d="M182.38 248.622L178.618 240.996L170.206 239.772L176.294 233.835L174.856 225.452L182.38 229.41L189.904 225.452L188.467 233.835L194.555 239.772L186.143 240.996L182.38 248.622Z" fill="#CCC565"/>
<path d="M127.54 229.362L123.777 221.736L115.366 220.512L121.454 214.575L120.016 206.192L127.54 210.15L135.064 206.192L133.626 214.575L139.715 220.512L131.303 221.736L127.54 229.362Z" fill="#CCC565"/>
<mask id="mask0_2079_75" style="mask-type:luminance" maskUnits="userSpaceOnUse" x="0" y="0" width="388" height="299">
<path d="M0 -3.34995e-06H388V299H0V-3.34995e-06Z" fill="white"/>
</mask>
<g mask="url(#mask0_2079_75)">
<path d="M205.744 194.997C205.927 197.424 204.963 201.615 196.022 201.748C187.146 201.881 178.421 198.555 172.022 192.402C165.689 186.282 159.108 175.955 158.127 159.026C158.127 159.026 159.075 156.232 155.933 152.308C155.933 152.308 142.072 136.642 141.889 123.804C141.823 120.279 143.717 116.986 146.643 115.007C146.759 114.924 146.892 114.89 147.008 114.89C147.357 114.89 147.69 115.173 147.673 115.556C147.54 118.898 147.856 127.762 154.105 133.782C153.939 133.183 151.263 123.305 151.113 116.553C151.047 113.477 152.742 110.65 155.501 109.286L171.025 101.636C171.789 101.254 172.72 101.703 172.886 102.551C174.133 108.904 180.182 130.972 204.298 131.088L200.642 146.57C200.293 148.001 199.346 149.231 197.999 149.846C195.872 150.794 192.166 151.077 186.398 147.152C187.047 149.081 188.376 150.711 190.138 151.742L196.769 155.617C197.617 156.133 198.049 157.13 197.8 158.095C197.418 159.641 196.952 162.236 197.052 165.528L194.094 162.103C191.218 164.913 187.396 166.443 183.257 166.443C175.928 166.443 171.008 161.338 171.008 153.671C171.008 146.022 175.928 140.916 183.257 140.916C187.013 140.916 190.071 142.13 192.88 144.741L200.143 137.274C195.44 132.635 189.822 130.273 183.008 130.273C168.847 130.273 158.892 139.386 158.892 153.671C158.892 167.64 168.266 177.086 183.257 177.086C188.808 177.086 193.728 175.556 198.049 172.397C199.179 176.837 201.49 181.876 205.778 187.081C206.21 187.613 205.994 188.411 205.329 188.577C202.304 189.309 193.462 189.575 173.135 178.417C173.135 178.417 179.468 192.153 203.85 193.25C204.83 193.284 205.661 194.032 205.744 194.997Z" fill="#CCC565"/>
<path d="M86.4667 159.803V176.005H74.5449V131.35H86.4667V147.681L99.4738 131.35H114.136L96.0932 153.422L115.73 176.005H100.175L86.4667 159.803Z" fill="#233724"/>
<path d="M119.24 131.35H153.86V141.173H130.907V148.638H152.584V158.079H130.907V166.053H154.753V176.006H119.24V131.35Z" fill="#233724"/>
<path d="M206.337 131.35H218.451V148.001H234.901V131.35H247.014V176.006H234.901V158.781H218.451V176.006H206.337V131.35Z" fill="#233724"/>
<path d="M256.07 131.35H290.69V141.173H267.737V148.638H289.413V158.079H267.737V166.053H291.582V176.006H256.07V131.35Z" fill="#233724"/>
<path d="M298.662 131.349H310.777V176.005H298.662V131.349Z" fill="#233724"/>
</g>
</g>
<defs>
<clipPath id="clip0_2079_75">
<rect width="388" height="299" fill="white"/>
</clipPath>
</defs>
</svg>
